<?xml version="1.0" encoding="UTF-8"?>
<svg width="24px" height="24px" viewBox="0 0 24 24" version="1.1" xmlns="http://www.w3.org/2000/svg" xmlns:xlink="http://www.w3.org/1999/xlink">
    <!-- Generator: Sketch 51.3 (57544) - http://www.bohemiancoding.com/sketch -->
    <title>facebook-square</title>
    <desc>Created with Sketch.</desc>
    <defs></defs>
    <g id="Page-1" stroke="none" stroke-width="1" fill="none" fill-rule="evenodd">
        <g id="1920x1080網頁" transform="translate(-930.000000, -593.000000)" fill="#FFC75E" fill-rule="nonzero">
            <g id="facebook-square" transform="translate(928.000000, 591.000000)">
                <rect id="Rectangle-path" opacity="0" x="0" y="0" width="29" height="29"></rect>
                <path d="M21.4996172,2 C22.7392715,2 23.7992489,2.44010208 24.6795493,3.32030623 C25.5598498,4.20051039 26,5.26037186 26,6.49989063 L26,21.4992344 C26,22.7387532 25.5598498,23.7986147 24.6795493,24.6788188 C23.7992489,25.559023 22.7392715,25.999125 21.4996172,25.999125 L18.5620739,25.999125 L18.5620739,16.7027342 L21.672002,16.7027342 L22.1410289,13.077798 L18.5629489,13.077798 L18.5629489,10.7652935 C18.5629489,10.1819905 18.6854559,9.74451331 18.93047,9.45286183 C19.175484,9.16121035 19.6520947,9.01538462 20.3603019,9.01538462 L22.2670361,8.99963544 L22.2670361,5.76580386 C21.6107485,5.67189209 20.6834871,5.6249362 19.4852518,5.6249362 C18.0682539,5.6249362 16.9353557,6.04170616 16.086557,6.87524608 C15.2377584,7.708786 14.8133591,8.88589136 14.8133591,10.4065622 L14.8133591,13.078673 L11.6885551,13.078673 L11.6885551,16.7036092 L14.8133591,16.7036092 L14.8133591,26 L6.50038283,26 C5.26072848,26 4.20075108,25.5598979 3.32045065,24.6796938 C2.44015022,23.7994896 2,22.7396281 2,21.5001094 L2,6.50076559 C2,5.26124681 2.44015022,4.20138534 3.32045065,3.32118119 C4.20075108,2.44097703 5.26072848,2.00087495 6.50038283,2.00087495 L21.5013673,2.00087495 L21.4996172,2 Z" id="Shape"></path>
            </g>
        </g>
    </g>
</svg>