<?xml version="1.0" encoding="UTF-8"?>
<svg width="26px" height="25px" viewBox="0 0 26 25" version="1.1" xmlns="http://www.w3.org/2000/svg" xmlns:xlink="http://www.w3.org/1999/xlink">
    <!-- Generator: Sketch 51.3 (57544) - http://www.bohemiancoding.com/sketch -->
    <title>github</title>
    <desc>Created with Sketch.</desc>
    <defs></defs>
    <g id="Page-1" stroke="none" stroke-width="1" fill="none" fill-rule="evenodd">
        <g id="1920x1080網頁-copy-2" transform="translate(-954.000000, -593.000000)" fill="#FFC75E" fill-rule="nonzero">
            <g id="github" transform="translate(951.000000, 591.000000)">
                <rect id="Rectangle-path" opacity="0" x="0" y="0" width="29" height="29"></rect>
                <path d="M28.8476563,14.8130643 C28.8476563,17.6047996 28.0210503,20.1156931 26.3678385,22.3457446 C24.7146267,24.5757962 22.5789931,26.1190364 19.9609375,26.9754651 C19.65625,27.0310774 19.4333767,26.9921488 19.2923177,26.8586794 C19.1512587,26.72521 19.0807291,26.5583732 19.0807292,26.3581691 L19.0807292,22.8379131 C19.0807292,21.7590353 18.7873264,20.9693413 18.2005208,20.4688309 C18.84375,20.4020962 19.422092,20.3019942 19.9355469,20.1685247 C20.4490017,20.0350553 20.9793837,19.8181675 21.5266927,19.5178613 C22.0740018,19.2175551 22.531033,18.8477336 22.8977865,18.4083968 C23.2645399,17.9690599 23.5635851,17.3851312 23.7949219,16.6566107 C24.0262587,15.9280901 24.1419271,15.0911256 24.1419271,14.1457172 C24.1419271,12.7999005 23.6961806,11.654288 22.8046875,10.7088796 C23.2222222,9.69673653 23.1770833,8.56224646 22.6692708,7.30540941 C22.3532986,7.20530735 21.8962674,7.26648083 21.2981771,7.48892986 C20.7000868,7.71137888 20.1809896,7.95607282 19.7408854,8.22301166 L19.0976562,8.62341993 C18.0481771,8.33423618 16.9648437,8.18964431 15.8476562,8.18964431 C14.7304687,8.18964431 13.6471354,8.33423618 12.5976562,8.62341993 C12.4171007,8.50107297 12.1773003,8.35091987 11.8782552,8.17296065 C11.57921,7.99500143 11.1080729,7.78089423 10.4648437,7.53063907 C9.82161454,7.2803839 9.33637149,7.20530735 9.00911456,7.30540941 C8.51258678,8.56224646 8.47309025,9.69673653 8.89062497,10.7088796 C7.99913192,11.654288 7.55338539,12.7999005 7.55338539,14.1457172 C7.55338539,15.0911256 7.6690538,15.9253095 7.90039061,16.6482688 C8.13172742,17.3712282 8.42795138,17.9551569 8.78906249,18.400055 C9.15017359,18.844953 9.60438366,19.2175551 10.1516927,19.5178613 C10.6990017,19.8181675 11.2293837,20.0350553 11.7428385,20.1685247 C12.2562934,20.3019942 12.8346354,20.4020962 13.4778646,20.4688309 C13.0264757,20.8692392 12.75,21.4420455 12.6484375,22.1872497 C12.4114583,22.2984742 12.1575521,22.3818926 11.8867187,22.4375049 C11.6158854,22.4931172 11.2942708,22.5209233 10.921875,22.5209233 C10.5494791,22.5209233 10.1799045,22.4013569 9.81315104,22.1622242 C9.44639758,21.9230915 9.13324653,21.5755149 8.87369791,21.1194944 C8.65928818,20.7635759 8.38563366,20.4743922 8.05273436,20.2519431 C7.71983505,20.0294941 7.44053818,19.8960247 7.21484374,19.8515349 L6.87630209,19.8014838 C6.63932292,19.8014838 6.47569444,19.8265094 6.38541666,19.8765604 C6.29513887,19.9266114 6.26692706,19.9905655 6.30078124,20.0684227 C6.33463541,20.1462799 6.38541666,20.224137 6.45312498,20.3019942 C6.52083331,20.3798513 6.594184,20.4465861 6.67317705,20.5021983 L6.79166664,20.5856167 C7.03993053,20.6968412 7.28537324,20.9081678 7.52799476,21.2195965 C7.77061629,21.5310251 7.94835066,21.8146476 8.06119789,22.070464 L8.23046873,22.4541886 C8.37717011,22.8768417 8.625434,23.2188571 8.97526039,23.4802347 C9.32508679,23.7416123 9.70312498,23.9084491 10.109375,23.9807451 C10.515625,24.053041 10.9077691,24.0919696 11.2858073,24.0975308 C11.6638455,24.103092 11.9769965,24.0836277 12.2252604,24.0391379 L12.6145833,23.9724032 C12.6145833,24.3950564 12.6427951,24.8900055 12.6992187,25.4572505 C12.7556423,26.0244956 12.7838542,26.3248018 12.7838542,26.3581691 C12.7838542,26.5583732 12.7105035,26.72521 12.5638021,26.8586794 C12.4171007,26.9921489 12.1914063,27.0310774 11.8867187,26.9754652 C9.26866318,26.1190364 7.13302951,24.5757962 5.47981772,22.3457447 C3.82660593,20.1156931 3.00000002,17.6047996 3,14.8130643 C3,12.4884719 3.5811632,10.3446194 4.74348959,8.38150664 C5.90581598,6.41839392 7.48285591,4.8640313 9.47460939,3.71841878 C11.4663629,2.57280626 13.6414931,2 16,2 C18.3585069,2 20.5336371,2.57280626 22.5253906,3.71841878 C24.5171441,4.8640313 26.094184,6.41839392 27.2565104,8.38150664 C28.4188368,10.3446194 29,12.4884719 29,14.8130643 L28.8476563,14.8130643 Z" id="Shape"></path>
            </g>
        </g>
    </g>
</svg>